<svg id="Layer_1" viewBox="0 0 66 66" xmlns="http://www.w3.org/2000/svg"><style>.st0{fill:#fff}.st1{fill:#eaeaea}.st2{fill:#fad374}.st2,.st3,.st4{stroke:#3b3049;stroke-width:2;stroke-miterlimit:10}.st3{fill:none}.st4{fill:#4dba61}.st5{fill:#fdfdfd}.st6{fill:#fad374}.st7{fill:#f4c660}.st8{fill:#ef3b58}.st9{fill:#49cbd8}.st10{fill:#e3e5e4}.st11{fill:#4dba61}.st12{fill:#2fad4a}.st13{fill:#dd3e52}.st14,.st15{fill:#fff;stroke:#3b3049;stroke-width:2;stroke-miterlimit:10}.st15{fill:#ef3b58}.st16{fill:#2d8bbe}.st17,.st18{fill:none;stroke:#fff;stroke-width:2;stroke-miterlimit:10}.st18{stroke:#3b3049;stroke-linecap:round}</style><path class="st0" d="M31.1 33c0 1.5.6 2.8 1.5 3.7 1 1 2.3 1.5 3.7 1.5h11.2v23.9h-40c-3 0-5.5-2.4-5.5-5.5V9.3c0-3 2.4-5.5 5.5-5.5h40.1v23.9H36.4c-2.9 0-5.3 2.4-5.3 5.3z"/><path class="st10" d="M10.2 62.2H7.9c-3 0-5.5-2.4-5.5-5.5V9.3c0-3 2.4-5.5 5.5-5.5h2.3c-3 0-5.5 2.5-5.5 5.5v47.4c0 3 2.5 5.5 5.5 5.5z"/><path class="st11" d="M11.4 12.9h26.9v9.3H11.4z"/><path class="st12" d="M35.8 12.9h2.5v9.3h-2.5z"/><path class="st8" d="M36.4 38.3h11.3c.4 0 .8-.4.8-.8v-8.9c0-.4-.4-.8-.8-.8H36.4c-2.9 0-5.3 2.4-5.3 5.3 0 2.8 2.4 5.2 5.3 5.2z"/><path class="st13" d="M48.5 28.5v8.9c0 .4-.4.8-.8.8h-2.1c.4 0 .8-.4.3-.8v-8.9c.5-.4.1-.8-.3-.8h2.1c.5 0 .8.4.8.8z"/><path class="st0" d="M11.4 12.9h2.1v9.3h-2.1zm23.4 23.8c1 .9 2.3 1.5 3.7 1.5h-2.1c-1.5 0-2.8-.6-3.7-1.5-.9-1-1.5-2.3-1.5-3.7 0-2.9 2.4-5.3 5.3-5.3h2.1c-2.9 0-5.3 2.4-5.3 5.3 0 1.5.6 2.8 1.5 3.7z"/><path class="st3" d="M31.1 33c0 1.5.6 2.8 1.5 3.7 1 1 2.3 1.5 3.7 1.5h11.2v23.9h-40c-3 0-5.5-2.4-5.5-5.5V9.3c0-3 2.4-5.5 5.5-5.5h40.1v23.9H36.4c-2.9 0-5.3 2.4-5.3 5.3z"/><path class="st3" d="M11.4 12.9h26.9v9.3H11.4zm25 25.4h11.3c.4 0 .8-.4.8-.8v-8.9c0-.4-.4-.8-.8-.8H36.4c-2.9 0-5.3 2.4-5.3 5.3 0 2.8 2.4 5.2 5.3 5.2z"/><path class="st0" d="M63.9 15.8L59.7 8l-4.2 7.8z"/><path class="st9" d="M55.4 53.7c0 2.4 1.9 4.3 4.3 4.3s4.3-1.9 4.3-4.3v-4.6h-8.6v4.6z"/><path class="st0" d="M60.8 57.8c-.4.1-.7.2-1.1.2-2.4 0-4.3-1.9-4.3-4.3v-4.6h2.3v4.6c-.1 2 1.3 3.6 3.1 4.1z"/><path class="st6" d="M55.4 15.9H64v33.2h-8.6z"/><path class="st0" d="M55.4 15.9h2.3v33.2h-2.3z"/><path class="st3" d="M55.4 53.7c0 2.4 1.9 4.3 4.3 4.3s4.3-1.9 4.3-4.3v-4.6h-8.6v4.6zM59.7 8l-4.3 7.9v33.2H64V15.9z"/><path class="st14" d="M55.4 15.9H64"/></svg>