<svg xmlns="http://www.w3.org/2000/svg" viewBox="0 0 512 512"><path d="M400 0H112C50.144 0 0 50.144 0 112v288c0 61.856 50.144 112 112 112h288c61.856 0 112-50.144 112-112V112C512 50.144 461.856 0 400 0z" fill="#41479b"/><path d="M259.885 99.898l4.27 12.804 13.497.105c1.747.013 2.472 2.243 1.066 3.282l-10.857 8.018 4.071 12.868c.527 1.666-1.37 3.044-2.791 2.028l-10.98-7.848-10.98 7.848c-1.422 1.016-3.318-.362-2.791-2.028l4.071-12.868-10.857-8.018c-1.406-1.038-.681-3.268 1.066-3.282l13.496-.105 4.27-12.804c.551-1.658 2.896-1.658 3.449 0zm0 274.899l4.27 12.803 13.497.105c1.747.014 2.472 2.243 1.066 3.281l-10.857 8.018 4.071 12.868c.527 1.666-1.37 3.044-2.791 2.028l-10.98-7.848-10.98 7.848c-1.422 1.016-3.318-.362-2.791-2.028l4.071-12.868-10.857-8.018c-1.406-1.038-.681-3.268 1.066-3.281l13.496-.105 4.27-12.803c.551-1.658 2.896-1.658 3.449 0zm137.449-137.45l4.27 12.804 13.496.105c1.747.014 2.472 2.243 1.066 3.282l-10.857 8.018 4.071 12.868c.527 1.666-1.37 3.044-2.791 2.028l-10.98-7.848-10.98 7.848c-1.422 1.016-3.319-.362-2.792-2.028l4.071-12.868-10.857-8.018c-1.406-1.038-.681-3.268 1.066-3.282l13.496-.105 4.27-12.804c.554-1.658 2.898-1.658 3.451 0zm-274.899 0l4.27 12.804 13.496.105c1.747.014 2.472 2.243 1.066 3.282l-10.857 8.018 4.071 12.868c.527 1.666-1.37 3.044-2.791 2.028l-10.98-7.848-10.98 7.848c-1.422 1.016-3.318-.362-2.791-2.028l4.071-12.868-10.857-8.018c-1.406-1.038-.681-3.268 1.066-3.282l13.496-.105 4.27-12.804c.552-1.658 2.897-1.658 3.45 0zm20.634-71.778l4.27 12.803 13.497.105c1.747.014 2.472 2.243 1.066 3.281l-10.857 8.018 4.071 12.868c.527 1.666-1.37 3.044-2.791 2.028l-10.98-7.848-10.98 7.848c-1.422 1.016-3.319-.362-2.791-2.028l4.071-12.868-10.857-8.018c-1.406-1.038-.681-3.268 1.066-3.282l13.496-.105 4.27-12.803c.551-1.656 2.896-1.656 3.449.001zm238.069 137.45l4.27 12.804 13.496.105c1.747.014 2.472 2.243 1.066 3.281l-10.857 8.018 4.071 12.868c.527 1.666-1.37 3.044-2.791 2.028l-10.98-7.848-10.98 7.848c-1.422 1.016-3.319-.362-2.791-2.028l4.071-12.868-10.857-8.018c-1.406-1.038-.681-3.268 1.066-3.281l13.496-.105 4.27-12.804c.553-1.658 2.898-1.658 3.45 0zm-50.31-187.76l4.27 12.804 13.496.105c1.747.014 2.472 2.243 1.066 3.282l-10.857 8.018 4.071 12.868c.527 1.666-1.37 3.044-2.791 2.028l-10.98-7.848-10.98 7.848c-1.422 1.016-3.319-.362-2.792-2.028l4.071-12.868-10.857-8.018c-1.406-1.038-.681-3.268 1.066-3.282l13.496-.105 4.27-12.804c.554-1.657 2.899-1.657 3.451 0zm-137.449 238.07l4.27 12.804 13.497.105c1.747.014 2.472 2.243 1.066 3.281l-10.857 8.018 4.071 12.868c.527 1.666-1.37 3.044-2.792 2.028l-10.98-7.848-10.98 7.848c-1.422 1.016-3.318-.362-2.791-2.028l4.071-12.868-10.857-8.018c-1.406-1.038-.681-3.268 1.066-3.281l13.496-.105 4.27-12.804c.552-1.658 2.897-1.658 3.45 0zm184.309-187.76l-4.27 12.803-13.496.105c-1.747.014-2.472 2.243-1.066 3.281l10.857 8.018-4.071 12.868c-.527 1.666 1.37 3.044 2.791 2.028l10.98-7.848 10.98 7.848c1.422 1.016 3.319-.362 2.791-2.028l-4.071-12.868 10.857-8.018c1.406-1.038.681-3.268-1.066-3.282l-13.496-.105-4.27-12.803c-.552-1.656-2.897-1.656-3.45.001zm-238.07 137.45l-4.27 12.804-13.496.105c-1.747.014-2.472 2.243-1.066 3.281l10.857 8.018-4.071 12.868c-.527 1.666 1.37 3.044 2.791 2.028l10.98-7.848 10.98 7.848c1.422 1.016 3.318-.362 2.792-2.028l-4.071-12.868 10.857-8.018c1.406-1.038.681-3.268-1.066-3.281l-13.497-.105-4.27-12.804c-.552-1.658-2.897-1.658-3.45 0zm50.31-187.76l-4.27 12.804-13.496.105c-1.747.014-2.472 2.243-1.066 3.282l10.857 8.018-4.071 12.868c-.527 1.666 1.37 3.044 2.791 2.028l10.98-7.848 10.98 7.848c1.422 1.016 3.318-.362 2.791-2.028l-4.071-12.868 10.857-8.018c1.406-1.038.681-3.268-1.066-3.282l-13.497-.105-4.27-12.804c-.551-1.657-2.896-1.657-3.449 0zm137.45 238.07l-4.27 12.804-13.496.105c-1.747.014-2.472 2.243-1.066 3.281l10.857 8.018-4.071 12.868c-.527 1.666 1.37 3.044 2.791 2.028l10.98-7.848 10.98 7.848c1.422 1.016 3.319-.362 2.791-2.028l-4.071-12.868 10.857-8.018c1.406-1.038.681-3.268-1.066-3.281l-13.496-.105-4.27-12.804c-.552-1.658-2.897-1.658-3.45 0z" fill="#ffe15a"/></svg>