<?xml version="1.0" ?><!DOCTYPE svg  PUBLIC '-//W3C//DTD SVG 1.1//EN'  'http://www.w3.org/Graphics/SVG/1.1/DTD/svg11.dtd'><svg id="Layer_1" style="enable-background:new 0 0 66 66;" version="1.1" viewBox="0 0 66 66" xml:space="preserve" xmlns="http://www.w3.org/2000/svg" xmlns:xlink="http://www.w3.org/1999/xlink"><style type="text/css">
	.st0{fill:#FFFFFF;}
	.st1{fill:#EAEAEA;}
	.st2{fill:#FAD374;stroke:#3B3049;stroke-width:2;stroke-miterlimit:10;}
	.st3{fill:none;stroke:#3B3049;stroke-width:2;stroke-miterlimit:10;}
	.st4{fill:#4DBA61;stroke:#3B3049;stroke-width:2;stroke-miterlimit:10;}
	.st5{fill:#FDFDFD;}
	.st6{fill:#FAD374;}
	.st7{fill:#F4C660;}
	.st8{fill:#EF3B58;}
	.st9{fill:#49CBD8;}
	.st10{fill:#E3E5E4;}
	.st11{fill:#4DBA61;}
	.st12{fill:#2FAD4A;}
	.st13{fill:#DD3E52;}
	.st14{fill:#FFFFFF;stroke:#3B3049;stroke-width:2;stroke-miterlimit:10;}
	.st15{fill:#EF3B58;stroke:#3B3049;stroke-width:2;stroke-miterlimit:10;}
	.st16{fill:#2D8BBE;}
	.st17{fill:none;stroke:#FFFFFF;stroke-width:2;stroke-miterlimit:10;}
	.st18{fill:none;stroke:#3B3049;stroke-width:2;stroke-linecap:round;stroke-miterlimit:10;}
</style><g><path class="st6" d="M47.4,4.6c-4.2,4.2-7.9,9.2-9.9,14.3c-1.4-0.7-2.9-1-4.5-1c-1.5,0-3,0.4-4.5,1c-2-5.1-5.7-10-9.9-14.3   C27.9,1.1,38.1,1.1,47.4,4.6z"/><path class="st0" d="M55.8,50.3c0-7.6-10.2-32.5-22.8-32.5S10.2,42.8,10.2,50.3S20.4,64,33,64S55.8,57.9,55.8,50.3z"/><g><path class="st1" d="M34.8,64c-0.5,0-0.9,0-1.4,0c-12.6,0-22.8-6.1-22.8-13.7c0-7.5,10.2-32.5,22.8-32.5c0.5,0,0.9,0,1.4,0.1    c-12,1.7-21.4,25.1-21.4,32.4S22.9,63.6,34.8,64z"/></g><path class="st0" d="M30.9,18c-2.2-5.1-5.8-9.9-10-14.2c-0.8,0.2-1.6,0.5-2.3,0.8c4.2,4.2,7.9,9.2,9.9,14.3   C29.3,18.5,30.1,18.3,30.9,18C30.9,18.1,30.9,18,30.9,18z"/><g><g><g><g><path class="st3" d="M27.3,46.6c0,3.1,2.6,5.7,5.7,5.7s5.7-2.6,5.7-5.7s-2.6-5.7-5.7-5.7s-5.7-2.6-5.7-5.7       c0-3.1,2.6-5.7,5.7-5.7s5.7,2.6,5.7,5.7"/></g><line class="st3" x1="33" x2="33" y1="29.5" y2="26.7"/><line class="st3" x1="33" x2="33" y1="55.1" y2="52.3"/></g></g></g><path class="st3" d="M47.4,4.6c-4.2,4.2-7.9,9.2-9.9,14.3c-1.4-0.7-2.9-1-4.5-1c-1.5,0-3,0.4-4.5,1c-2-5.1-5.7-10-9.9-14.3   C27.9,1.1,38.1,1.1,47.4,4.6z"/><path class="st3" d="M55.8,50.3c0-7.6-10.2-32.5-22.8-32.5S10.2,42.8,10.2,50.3S20.4,64,33,64S55.8,57.9,55.8,50.3z"/></g></svg>