<?xml version="1.0" encoding="iso-8859-1"?>
<!-- Generator: Adobe Illustrator 19.0.0, SVG Export Plug-In . SVG Version: 6.00 Build 0)  -->
<svg version="1.1" id="Layer_1" xmlns="http://www.w3.org/2000/svg" xmlns:xlink="http://www.w3.org/1999/xlink" x="0px" y="0px"
	 viewBox="0 0 512 512" style="enable-background:new 0 0 512 512;" xml:space="preserve">
<g>
	<polygon style="fill:#424242;" points="127.691,90.528 108.326,71.165 425.13,71.165 425.13,108.337 455.475,108.337 
		455.475,40.82 108.326,40.82 127.691,21.456 106.235,0 50.241,55.992 106.235,111.985 	"/>
	<polygon style="fill:#424242;" points="405.767,400.015 384.31,421.472 403.674,440.835 86.87,440.835 86.87,403.664 
		56.525,403.664 56.525,471.18 403.674,471.18 384.31,490.545 405.767,512 461.759,456.008 	"/>
</g>
<rect x="8.188" y="116.816" style="fill:#3DDB86;" width="495.624" height="278.369"/>
<rect x="8.188" y="116.816" style="fill:#66FFAF;" width="247.812" height="278.369"/>
<circle style="fill:#3DDB86;" cx="83.376" cy="255.995" r="24.075"/>
<g>
	<circle style="fill:#048F46;" cx="428.624" cy="255.995" r="24.075"/>
	<path style="fill:#048F46;" d="M8.188,116.818v278.366h495.624V116.818H8.188z M38.532,314.093V197.908
		c25.97-4.285,46.461-24.777,50.746-50.746h99.748c-36.486,22.499-60.81,62.826-60.81,108.839s24.324,86.339,60.81,108.839H89.279
		C84.993,338.869,64.502,318.378,38.532,314.093z M473.468,314.093c-25.97,4.285-46.461,24.777-50.746,50.746h-99.748
		c36.486-22.499,60.81-62.826,60.81-108.839s-24.324-86.339-60.81-108.839h99.748c4.285,25.97,24.777,46.461,50.746,50.746
		L473.468,314.093L473.468,314.093z"/>
</g>
<g>
	<path style="fill:#3DDB86;" d="M256,116.818H8.188v278.366H256V116.818z M89.279,364.839c-4.285-25.97-24.777-46.461-50.746-50.746
		V197.908c25.97-4.285,46.461-24.777,50.746-50.746h99.748c-36.486,22.499-60.81,62.826-60.81,108.839s24.324,86.339,60.81,108.839
		H89.279V364.839z"/>
	<path style="fill:#3DDB86;" d="M256,354.303c-54.204,0-98.302-44.098-98.302-98.302s44.098-98.303,98.302-98.303
		s98.302,44.098,98.302,98.303S310.204,354.303,256,354.303z M256,188.043c-37.472,0-67.958,30.486-67.958,67.958
		c0,37.472,30.486,67.958,67.958,67.958s67.958-30.486,67.958-67.958S293.472,188.043,256,188.043z"/>
</g>
<path style="fill:#66FFAF;" d="M256,323.958c-37.472,0-67.958-30.486-67.958-67.958s30.486-67.958,67.958-67.958v-30.344
	c-54.204,0-98.302,44.098-98.302,98.303s44.098,98.302,98.302,98.302V323.958z"/>
<g>
</g>
<g>
</g>
<g>
</g>
<g>
</g>
<g>
</g>
<g>
</g>
<g>
</g>
<g>
</g>
<g>
</g>
<g>
</g>
<g>
</g>
<g>
</g>
<g>
</g>
<g>
</g>
<g>
</g>
</svg>
