<?xml version="1.0" encoding="iso-8859-1"?>
<!-- Generator: Adobe Illustrator 19.0.0, SVG Export Plug-In . SVG Version: 6.00 Build 0)  -->
<svg version="1.1" id="Capa_1" xmlns="http://www.w3.org/2000/svg" xmlns:xlink="http://www.w3.org/1999/xlink" x="0px" y="0px"
	 viewBox="0 0 512.025 512.025" style="enable-background:new 0 0 512.025 512.025;" xml:space="preserve">
<g>
	<g>
		<g>
			<path d="M160.013,448.013V54.573l84.64,84.64l22.56-22.56l-112-112c-6.241-6.204-16.319-6.204-22.56,0l-112,112l22.72,22.72
				l84.64-84.8v393.44c0,22.08,16,64,80,64h48v-32h-48C163.213,480.013,160.013,453.133,160.013,448.013z"/>
			<path d="M468.653,372.653l-84.64,84.8V64.013c0-22.08-16-64-80-64h-48v32h48c44.8,0,48,26.88,48,32v393.44l-84.64-84.64
				l-22.56,22.56l112,112c6.241,6.204,16.319,6.204,22.56,0l112-112L468.653,372.653z"/>
		</g>
	</g>
</g>
<g>
</g>
<g>
</g>
<g>
</g>
<g>
</g>
<g>
</g>
<g>
</g>
<g>
</g>
<g>
</g>
<g>
</g>
<g>
</g>
<g>
</g>
<g>
</g>
<g>
</g>
<g>
</g>
<g>
</g>
</svg>
