<svg id="Layer_1" viewBox="0 0 66 66" xmlns="http://www.w3.org/2000/svg"><style>.st0{fill:#fff}.st1{fill:#eaeaea}.st2{fill:#fad374}.st2,.st3,.st4{stroke:#3b3049;stroke-width:2;stroke-miterlimit:10}.st3{fill:none}.st4{fill:#4dba61}.st5{fill:#fdfdfd}.st6{fill:#fad374}.st7{fill:#f4c660}.st8{fill:#ef3b58}.st9{fill:#49cbd8}.st10{fill:#e3e5e4}.st11{fill:#4dba61}.st12{fill:#2fad4a}.st13{fill:#dd3e52}.st14,.st15{fill:#fff;stroke:#3b3049;stroke-width:2;stroke-miterlimit:10}.st15{fill:#ef3b58}.st16{fill:#2d8bbe}.st17,.st18{fill:none;stroke:#fff;stroke-width:2;stroke-miterlimit:10}.st18{stroke:#3b3049;stroke-linecap:round}</style><path class="st6" d="M47.4 4.6c-4.2 4.2-7.9 9.2-9.9 14.3-1.4-.7-2.9-1-4.5-1-1.5 0-3 .4-4.5 1-2-5.1-5.7-10-9.9-14.3 9.3-3.5 19.5-3.5 28.8 0z"/><path class="st0" d="M55.8 50.3c0-7.6-10.2-32.5-22.8-32.5s-22.8 25-22.8 32.5S20.4 64 33 64s22.8-6.1 22.8-13.7z"/><path class="st1" d="M34.8 64h-1.4c-12.6 0-22.8-6.1-22.8-13.7 0-7.5 10.2-32.5 22.8-32.5.5 0 .9 0 1.4.1-12 1.7-21.4 25.1-21.4 32.4S22.9 63.6 34.8 64z"/><path class="st0" d="M30.9 18c-2.2-5.1-5.8-9.9-10-14.2-.8.2-1.6.5-2.3.8 4.2 4.2 7.9 9.2 9.9 14.3.8-.4 1.6-.6 2.4-.9 0 .1 0 0 0 0z"/><path class="st3" d="M27.3 46.6c0 3.1 2.6 5.7 5.7 5.7s5.7-2.6 5.7-5.7-2.6-5.7-5.7-5.7-5.7-2.6-5.7-5.7 2.6-5.7 5.7-5.7 5.7 2.6 5.7 5.7M33 29.5v-2.8m0 28.4v-2.8M47.4 4.6c-4.2 4.2-7.9 9.2-9.9 14.3-1.4-.7-2.9-1-4.5-1-1.5 0-3 .4-4.5 1-2-5.1-5.7-10-9.9-14.3 9.3-3.5 19.5-3.5 28.8 0z"/><path class="st3" d="M55.8 50.3c0-7.6-10.2-32.5-22.8-32.5s-22.8 25-22.8 32.5S20.4 64 33 64s22.8-6.1 22.8-13.7z"/></svg>