<?xml version="1.0" encoding="iso-8859-1"?>
<!-- Generator: Adobe Illustrator 19.0.0, SVG Export Plug-In . SVG Version: 6.00 Build 0)  -->
<svg version="1.1" id="Capa_1" xmlns="http://www.w3.org/2000/svg" xmlns:xlink="http://www.w3.org/1999/xlink" x="0px" y="0px"
	 viewBox="0 0 512 512" style="enable-background:new 0 0 512 512;" xml:space="preserve">
<path style="fill:#ECF0F1;" d="M379.463,145.655c11.114-14.769,17.779-33.068,17.779-52.966c0-48.755-39.521-88.276-88.276-88.276
	c-38.215,0-70.656,24.329-82.944,58.297l82.944,82.944H379.463z"/>
<polygon style="fill:#24AE5F;" points="167.724,4.414 26.483,145.655 308.966,145.655 "/>
<path style="fill:#BDC3C7;" d="M308.966,39.724C279.711,39.724,256,63.435,256,92.69l52.966,52.966
	c29.255,0,52.966-23.711,52.966-52.966S338.22,39.724,308.966,39.724z"/>
<path style="fill:#CB9080;" d="M379.463,145.655h93.175c2.622-8.36,4.052-17.258,4.052-26.483c0-48.755-39.521-88.276-88.276-88.276
	c-5.191,0-10.24,0.538-15.183,1.395c14.848,15.801,24.011,37.005,24.011,60.398C397.241,112.596,390.585,130.904,379.463,145.655z"
	/>
<path style="fill:#7F5B53;" d="M379.33,145.655h54.908c4.511-7.795,7.142-16.825,7.142-26.483c0-27.613-21.133-50.264-48.102-52.718
	c2.578,8.289,3.964,17.099,3.964,26.236C397.241,112.631,390.497,130.895,379.33,145.655z"/>
<polygon style="fill:#128D47;" points="167.724,57.379 79.448,145.655 256,145.655 "/>
<path style="fill:#805333;" d="M481.836,507.586H30.164C13.506,507.586,0,494.08,0,477.422V166.991
	c0-16.658,13.506-30.164,30.164-30.164h451.681c16.649,0,30.155,13.506,30.155,30.164v310.44
	C512,494.08,498.494,507.586,481.836,507.586z"/>
<g>
	<path style="fill:#A77657;" d="M476.69,269.241c-4.873,0-8.828-3.955-8.828-8.828v-17.655c0-4.873,3.955-8.828,8.828-8.828
		c4.873,0,8.828,3.955,8.828,8.828v17.655C485.517,265.287,481.562,269.241,476.69,269.241z"/>
	<path style="fill:#A77657;" d="M476.69,198.621c-4.873,0-8.828-3.955-8.828-8.828v-8.828h-8.828c-4.873,0-8.828-3.955-8.828-8.828
		c0-4.873,3.955-8.828,8.828-8.828h17.655c4.873,0,8.828,3.955,8.828,8.828v17.655C485.517,194.666,481.562,198.621,476.69,198.621z
		"/>
	<path style="fill:#A77657;" d="M406.069,180.966h-35.31c-4.873,0-8.828-3.955-8.828-8.828c0-4.873,3.955-8.828,8.828-8.828h35.31
		c4.873,0,8.828,3.955,8.828,8.828C414.897,177.011,410.942,180.966,406.069,180.966z M317.793,180.966h-35.31
		c-4.873,0-8.828-3.955-8.828-8.828c0-4.873,3.955-8.828,8.828-8.828h35.31c4.873,0,8.828,3.955,8.828,8.828
		C326.621,177.011,322.666,180.966,317.793,180.966z M229.517,180.966h-35.31c-4.873,0-8.828-3.955-8.828-8.828
		c0-4.873,3.955-8.828,8.828-8.828h35.31c4.873,0,8.828,3.955,8.828,8.828C238.345,177.011,234.39,180.966,229.517,180.966z
		 M141.241,180.966h-35.31c-4.873,0-8.828-3.955-8.828-8.828c0-4.873,3.955-8.828,8.828-8.828h35.31
		c4.873,0,8.828,3.955,8.828,8.828C150.069,177.011,146.114,180.966,141.241,180.966z"/>
	<path style="fill:#A77657;" d="M35.31,198.621c-4.873,0-8.828-3.955-8.828-8.828v-17.655c0-4.873,3.955-8.828,8.828-8.828h17.655
		c4.873,0,8.828,3.955,8.828,8.828c0,4.873-3.955,8.828-8.828,8.828h-8.828v8.828C44.138,194.666,40.183,198.621,35.31,198.621z"/>
	<path style="fill:#A77657;" d="M35.31,402.335c-4.873,0-8.828-3.955-8.828-8.828v-40.739c0-4.873,3.955-8.828,8.828-8.828
		s8.828,3.955,8.828,8.828v40.739C44.138,398.38,40.183,402.335,35.31,402.335z M35.31,300.473c-4.873,0-8.828-3.955-8.828-8.828
		v-40.739c0-4.873,3.955-8.828,8.828-8.828s8.828,3.955,8.828,8.828v40.739C44.138,296.519,40.183,300.473,35.31,300.473z"/>
	<path style="fill:#A77657;" d="M52.966,481.103H35.31c-4.873,0-8.828-3.955-8.828-8.828v-17.655c0-4.873,3.955-8.828,8.828-8.828
		s8.828,3.955,8.828,8.828v8.828h8.828c4.873,0,8.828,3.955,8.828,8.828C61.793,477.149,57.838,481.103,52.966,481.103z"/>
	<path style="fill:#A77657;" d="M406.069,481.103h-35.31c-4.873,0-8.828-3.955-8.828-8.828c0-4.873,3.955-8.828,8.828-8.828h35.31
		c4.873,0,8.828,3.955,8.828,8.828C414.897,477.149,410.942,481.103,406.069,481.103z M317.793,481.103h-35.31
		c-4.873,0-8.828-3.955-8.828-8.828c0-4.873,3.955-8.828,8.828-8.828h35.31c4.873,0,8.828,3.955,8.828,8.828
		C326.621,477.149,322.666,481.103,317.793,481.103z M229.517,481.103h-35.31c-4.873,0-8.828-3.955-8.828-8.828
		c0-4.873,3.955-8.828,8.828-8.828h35.31c4.873,0,8.828,3.955,8.828,8.828C238.345,477.149,234.39,481.103,229.517,481.103z
		 M141.241,481.103h-35.31c-4.873,0-8.828-3.955-8.828-8.828c0-4.873,3.955-8.828,8.828-8.828h35.31
		c4.873,0,8.828,3.955,8.828,8.828C150.069,477.149,146.114,481.103,141.241,481.103z"/>
	<path style="fill:#A77657;" d="M476.69,481.103h-17.655c-4.873,0-8.828-3.955-8.828-8.828c0-4.873,3.955-8.828,8.828-8.828h8.828
		v-8.828c0-4.873,3.955-8.828,8.828-8.828c4.873,0,8.828,3.955,8.828,8.828v17.655C485.517,477.149,481.562,481.103,476.69,481.103z
		"/>
	<path style="fill:#A77657;" d="M476.69,410.483c-4.873,0-8.828-3.955-8.828-8.828V384c0-4.873,3.955-8.828,8.828-8.828
		c4.873,0,8.828,3.955,8.828,8.828v17.655C485.517,406.528,481.562,410.483,476.69,410.483z"/>
</g>
<path style="fill:#5F381F;" d="M512,384H397.241c-34.127,0-61.793-27.666-61.793-61.793l0,0c0-34.127,27.666-61.793,61.793-61.793
	H512V384z"/>
<circle style="fill:#ECF0F1;" cx="397.241" cy="322.207" r="26.483"/>
<path style="fill:#805333;" d="M476.69,348.69c-4.873,0-8.828-3.955-8.828-8.828v-35.31c0-4.873,3.955-8.828,8.828-8.828
	c4.873,0,8.828,3.955,8.828,8.828v35.31C485.517,344.735,481.562,348.69,476.69,348.69z"/>
<g>
</g>
<g>
</g>
<g>
</g>
<g>
</g>
<g>
</g>
<g>
</g>
<g>
</g>
<g>
</g>
<g>
</g>
<g>
</g>
<g>
</g>
<g>
</g>
<g>
</g>
<g>
</g>
<g>
</g>
</svg>
