<?xml version="1.0" ?><!DOCTYPE svg  PUBLIC '-//W3C//DTD SVG 1.1//EN'  'http://www.w3.org/Graphics/SVG/1.1/DTD/svg11.dtd'><svg id="Layer_1" style="enable-background:new 0 0 66 66;" version="1.1" viewBox="0 0 66 66" xml:space="preserve" xmlns="http://www.w3.org/2000/svg" xmlns:xlink="http://www.w3.org/1999/xlink"><style type="text/css">
	.st0{fill:#FFFFFF;}
	.st1{fill:#EAEAEA;}
	.st2{fill:#FAD374;stroke:#3B3049;stroke-width:2;stroke-miterlimit:10;}
	.st3{fill:none;stroke:#3B3049;stroke-width:2;stroke-miterlimit:10;}
	.st4{fill:#4DBA61;stroke:#3B3049;stroke-width:2;stroke-miterlimit:10;}
	.st5{fill:#FDFDFD;}
	.st6{fill:#FAD374;}
	.st7{fill:#F4C660;}
	.st8{fill:#EF3B58;}
	.st9{fill:#49CBD8;}
	.st10{fill:#E3E5E4;}
	.st11{fill:#4DBA61;}
	.st12{fill:#2FAD4A;}
	.st13{fill:#DD3E52;}
	.st14{fill:#FFFFFF;stroke:#3B3049;stroke-width:2;stroke-miterlimit:10;}
	.st15{fill:#EF3B58;stroke:#3B3049;stroke-width:2;stroke-miterlimit:10;}
	.st16{fill:#2D8BBE;}
	.st17{fill:none;stroke:#FFFFFF;stroke-width:2;stroke-miterlimit:10;}
	.st18{fill:none;stroke:#3B3049;stroke-width:2;stroke-linecap:round;stroke-miterlimit:10;}
</style><g><path class="st0" d="M31.1,33c0,1.5,0.6,2.8,1.5,3.7c1,1,2.3,1.5,3.7,1.5h11.2v23.9H7.5c-3,0-5.5-2.4-5.5-5.5V9.3   c0-3,2.4-5.5,5.5-5.5h40.1v23.9H36.4C33.5,27.7,31.1,30.1,31.1,33z"/><path class="st10" d="M10.2,62.2H7.9c-3,0-5.5-2.4-5.5-5.5V9.3c0-3,2.4-5.5,5.5-5.5h2.3c-3,0-5.5,2.5-5.5,5.5v47.4   C4.7,59.7,7.2,62.2,10.2,62.2z"/><rect class="st11" height="9.3" width="26.9" x="11.4" y="12.9"/><rect class="st12" height="9.3" width="2.5" x="35.8" y="12.9"/><path class="st8" d="M36.4,38.3h11.3c0.4,0,0.8-0.4,0.8-0.8v-8.9c0-0.4-0.4-0.8-0.8-0.8H36.4c-2.9,0-5.3,2.4-5.3,5.3v0   C31.1,35.9,33.5,38.3,36.4,38.3z"/><path class="st13" d="M48.5,28.5v8.9c0,0.4-0.4,0.8-0.8,0.8h-2.1c0.4,0,0.8-0.4,0.3-0.8v-8.9c0.5-0.4,0.1-0.8-0.3-0.8h2.1   C48.2,27.7,48.5,28.1,48.5,28.5z"/><rect class="st0" height="9.3" width="2.1" x="11.4" y="12.9"/><path class="st0" d="M34.8,36.7c1,0.9,2.3,1.5,3.7,1.5h-2.1c-1.5,0-2.8-0.6-3.7-1.5c-0.9-1-1.5-2.3-1.5-3.7c0-2.9,2.4-5.3,5.3-5.3   h2.1c-2.9,0-5.3,2.4-5.3,5.3C33.3,34.5,33.9,35.8,34.8,36.7z"/><path class="st3" d="M31.1,33c0,1.5,0.6,2.8,1.5,3.7c1,1,2.3,1.5,3.7,1.5h11.2v23.9H7.5c-3,0-5.5-2.4-5.5-5.5V9.3   c0-3,2.4-5.5,5.5-5.5h40.1v23.9H36.4C33.5,27.7,31.1,30.1,31.1,33z"/><rect class="st3" height="9.3" width="26.9" x="11.4" y="12.9"/><path class="st3" d="M36.4,38.3h11.3c0.4,0,0.8-0.4,0.8-0.8v-8.9c0-0.4-0.4-0.8-0.8-0.8H36.4c-2.9,0-5.3,2.4-5.3,5.3v0   C31.1,35.9,33.5,38.3,36.4,38.3z"/><g><polygon class="st0" points="63.9,15.8 59.7,8 55.5,15.8   "/><path class="st9" d="M55.4,53.7c0,2.4,1.9,4.3,4.3,4.3c2.4,0,4.3-1.9,4.3-4.3v-4.6h-8.6V53.7z"/><path class="st0" d="M60.8,57.8c-0.4,0.1-0.7,0.2-1.1,0.2c-2.4,0-4.3-1.9-4.3-4.3v-4.6h2.3v4.6C57.6,55.7,59,57.3,60.8,57.8z"/><rect class="st6" height="33.2" width="8.6" x="55.4" y="15.9"/><rect class="st0" height="33.2" width="2.3" x="55.4" y="15.9"/><path class="st3" d="M55.4,53.7c0,2.4,1.9,4.3,4.3,4.3c2.4,0,4.3-1.9,4.3-4.3v-4.6h-8.6V53.7z"/><polygon class="st3" points="59.7,8 55.4,15.9 55.4,49.1 64,49.1 64,15.9   "/><line class="st14" x1="55.4" x2="64" y1="15.9" y2="15.9"/></g></g></svg>