<?xml version="1.0" encoding="iso-8859-1"?>
<!-- Generator: Adobe Illustrator 19.0.0, SVG Export Plug-In . SVG Version: 6.00 Build 0)  -->
<svg version="1.1" id="Capa_1" xmlns="http://www.w3.org/2000/svg" xmlns:xlink="http://www.w3.org/1999/xlink" x="0px" y="0px"
	 viewBox="0 0 512 512" style="enable-background:new 0 0 512 512;" xml:space="preserve">
<circle style="fill:#F2F2F2;" cx="357.333" cy="154.667" r="154.667"/>
<circle style="fill:#E8EAEA;" cx="357.333" cy="154.667" r="117.333"/>
<path style="fill:#F2F2F2;" d="M353.067,235.733v-13.867c-18.133-2.133-34.133-8.533-48-21.333l13.867-17.067
	c10.667,9.6,22.4,14.933,34.133,17.067v-38.4c-14.933-3.2-25.6-8.533-32-13.867c-6.4-5.333-10.667-13.867-10.667-25.6
	s4.267-20.267,11.733-27.733c7.467-7.467,18.133-10.667,30.933-11.733v-9.6h12.8v9.6c13.867,1.067,27.733,6.4,40.533,14.933
	l-12.8,18.133c-8.533-6.4-18.133-9.6-27.733-11.733v37.333h1.067c14.933,3.2,25.6,8.533,33.067,13.867
	c7.467,6.4,10.667,14.933,10.667,26.667s-4.267,20.267-11.733,27.733c-8.533,7.467-19.2,10.667-32,11.733v13.867L353.067,235.733
	L353.067,235.733z M339.2,108.8c-3.2,3.2-5.333,6.4-5.333,10.667s1.067,7.467,4.267,10.667c2.133,2.133,7.467,5.333,14.933,7.467
	v-33.067C347.733,104.533,342.4,106.667,339.2,108.8z M380.8,195.2c3.2-3.2,5.333-6.4,5.333-11.733
	c0-4.267-1.067-8.533-4.267-10.667c-3.2-2.133-8.533-5.333-16-7.467v35.2C372.267,200.533,376.533,198.4,380.8,195.2z"/>
<circle style="fill:#FFD15C;" cx="154.667" cy="357.333" r="154.667"/>
<circle style="fill:#F8B64C;" cx="154.667" cy="357.333" r="117.333"/>
<path style="fill:#FFD15C;" d="M150.4,438.4v-13.867c-18.133-2.133-34.133-8.533-48-21.333l13.867-17.067
	c10.667,9.6,22.4,14.933,34.133,17.067v-38.4c-14.933-3.2-25.6-8.533-32-13.867c-6.4-5.333-10.667-13.867-10.667-25.6
	S112,305.067,119.467,297.6c7.467-7.467,18.133-10.667,30.933-11.733v-9.6h12.8v9.6c13.867,1.067,27.733,6.4,40.533,14.933
	l-12.8,18.133c-8.533-6.4-18.133-9.6-27.733-11.733v37.333h1.067c14.933,3.2,25.6,8.533,33.067,13.867
	C204.8,364.8,208,373.333,208,385.067c0,11.733-4.267,20.267-11.733,27.733c-8.533,7.467-19.2,10.667-32,11.733V438.4H150.4z
	 M136.533,312.533c-3.2,3.2-5.333,6.4-5.333,10.667s1.067,7.467,4.267,10.667c2.133,2.133,7.467,5.333,14.933,7.467V307.2
	C144,307.2,139.733,309.333,136.533,312.533z M178.133,397.867c3.2-3.2,5.333-6.4,5.333-11.733c0-4.267-1.067-8.533-4.267-10.667
	c-3.2-2.133-8.533-5.333-16-7.467v35.2C169.6,403.2,173.867,401.067,178.133,397.867z"/>
<g>
	<path style="fill:#40596B;" d="M155.733,108.8v-32C94.933,76.8,44.8,126.933,44.8,187.733H0C0,101.333,70.4,32,155.733,32V0
		l59.733,54.4L155.733,108.8z"/>
	<path style="fill:#40596B;" d="M356.267,403.2v32c60.8,0,110.933-50.133,110.933-110.933H512C512,410.667,441.6,480,356.267,480v32
		l-59.733-54.4L356.267,403.2z"/>
</g>
<g>
</g>
<g>
</g>
<g>
</g>
<g>
</g>
<g>
</g>
<g>
</g>
<g>
</g>
<g>
</g>
<g>
</g>
<g>
</g>
<g>
</g>
<g>
</g>
<g>
</g>
<g>
</g>
<g>
</g>
</svg>
